<mxfile>
    <diagram id="EmLWrfxEd9g9q1BMOvcd" name="octo_tweet">
        <mxGraphModel dx="1008" dy="776" grid="1" gridSize="10" guides="1" tooltips="1" connect="1" arrows="1" fold="1" page="1" pageScale="1" pageWidth="1169" pageHeight="827" math="0" shadow="0">
            <root>
                <mxCell id="0"/>
                <mxCell id="1" parent="0"/>
                <mxCell id="2" value="Entity No Foreign Keys" style="html=1;whiteSpace=wrap;swimlane;resizeParent=1;resizeParentMax=0;resizeLast=0;collapsible=1;marginBottom=0;swimlaneFillColor=#FFBBBB;startSize=20;fontSize=11;fontColor=#000000;spacing=0;strokeOpacity=100;fontFamily=Lucida Console;fillColor=#ffbbbb;swimlaneLine=1;opacity=50;gradientColor=none;" vertex="1" zOrder="69" parent="1">
                    <mxGeometry x="20" y="20" width="300" height="80" as="geometry"/>
                </mxCell>
                <mxCell id="3" value="Key" style="strokeColor=none;part=1;resizeHeight=0;align=center;verticalAlign=top;spacingLeft=4;spacingRight=4;overflow=hidden;rotatable=0;points=[[0,0.5],[1,0.5]];portConstraint=eastwest;swimlaneFillColor=#ffffff;fontSize=11;fontColor=#000000;fillColor=none;strokeOpacity=100;spacing=0;fontFamily=Lucida Console;" vertex="1" parent="2">
                    <mxGeometry y="20" width="40" height="20" as="geometry"/>
                </mxCell>
                <mxCell id="4" value="Field" style="shape=partialRectangle;top=0;right=0;bottom=0;part=1;resizeHeight=0;align=left;verticalAlign=top;spacingLeft=4;spacingRight=4;overflow=hidden;rotatable=0;points=[[0,0.5],[1,0.5]];portConstraint=eastwest;swimlaneFillColor=#ffffff;fontSize=11;fontColor=#000000;fillColor=none;strokeOpacity=100;spacing=0;fontFamily=Lucida Console;" vertex="1" parent="2">
                    <mxGeometry x="40" y="20" width="200" height="20" as="geometry"/>
                </mxCell>
                <mxCell id="5" value="Type" style="shape=partialRectangle;top=0;right=0;bottom=0;part=1;resizeHeight=0;align=left;verticalAlign=top;spacingLeft=4;spacingRight=4;overflow=hidden;rotatable=0;points=[[0,0.5],[1,0.5]];portConstraint=eastwest;swimlaneFillColor=#ffffff;fontSize=11;fontColor=#000000;fillColor=none;strokeOpacity=100;spacing=0;fontFamily=Lucida Console;" vertex="1" parent="2">
                    <mxGeometry x="240" y="20" width="60" height="20" as="geometry"/>
                </mxCell>
                <mxCell id="6" value="Key" style="strokeColor=none;part=1;resizeHeight=0;align=center;verticalAlign=top;spacingLeft=4;spacingRight=4;overflow=hidden;rotatable=0;points=[[0,0.5],[1,0.5]];portConstraint=eastwest;swimlaneFillColor=#ffffff;fontSize=11;fontColor=#000000;fillColor=#000000;strokeOpacity=100;spacing=0;fontFamily=Lucida Console;fillOpacity=5;" vertex="1" parent="2">
                    <mxGeometry y="40" width="40" height="20" as="geometry"/>
                </mxCell>
                <mxCell id="7" value="Field" style="shape=partialRectangle;top=0;right=0;bottom=0;part=1;resizeHeight=0;align=left;verticalAlign=top;spacingLeft=4;spacingRight=4;overflow=hidden;rotatable=0;points=[[0,0.5],[1,0.5]];portConstraint=eastwest;swimlaneFillColor=#ffffff;fontSize=11;fontColor=#000000;fillColor=#000000;strokeOpacity=100;spacing=0;fontFamily=Lucida Console;fillOpacity=5;" vertex="1" parent="2">
                    <mxGeometry x="40" y="40" width="200" height="20" as="geometry"/>
                </mxCell>
                <mxCell id="8" value="Type" style="shape=partialRectangle;top=0;right=0;bottom=0;part=1;resizeHeight=0;align=left;verticalAlign=top;spacingLeft=4;spacingRight=4;overflow=hidden;rotatable=0;points=[[0,0.5],[1,0.5]];portConstraint=eastwest;swimlaneFillColor=#ffffff;fontSize=11;fontColor=#000000;fillColor=#000000;strokeOpacity=100;spacing=0;fontFamily=Lucida Console;fillOpacity=5;" vertex="1" parent="2">
                    <mxGeometry x="240" y="40" width="60" height="20" as="geometry"/>
                </mxCell>
                <mxCell id="9" value="Key" style="strokeColor=none;part=1;resizeHeight=0;align=center;verticalAlign=top;spacingLeft=4;spacingRight=4;overflow=hidden;rotatable=0;points=[[0,0.5],[1,0.5]];portConstraint=eastwest;swimlaneFillColor=#ffffff;fontSize=11;fontColor=#000000;fillColor=none;strokeOpacity=100;spacing=0;fontFamily=Lucida Console;" vertex="1" parent="2">
                    <mxGeometry y="60" width="40" height="20" as="geometry"/>
                </mxCell>
                <mxCell id="10" value="Field" style="shape=partialRectangle;top=0;right=0;bottom=0;part=1;resizeHeight=0;align=left;verticalAlign=top;spacingLeft=4;spacingRight=4;overflow=hidden;rotatable=0;points=[[0,0.5],[1,0.5]];portConstraint=eastwest;swimlaneFillColor=#ffffff;fontSize=11;fontColor=#000000;fillColor=none;strokeOpacity=100;spacing=0;fontFamily=Lucida Console;" vertex="1" parent="2">
                    <mxGeometry x="40" y="60" width="200" height="20" as="geometry"/>
                </mxCell>
                <mxCell id="11" value="Type" style="shape=partialRectangle;top=0;right=0;bottom=0;part=1;resizeHeight=0;align=left;verticalAlign=top;spacingLeft=4;spacingRight=4;overflow=hidden;rotatable=0;points=[[0,0.5],[1,0.5]];portConstraint=eastwest;swimlaneFillColor=#ffffff;fontSize=11;fontColor=#000000;fillColor=none;strokeOpacity=100;spacing=0;fontFamily=Lucida Console;" vertex="1" parent="2">
                    <mxGeometry x="240" y="60" width="60" height="20" as="geometry"/>
                </mxCell>
                <mxCell id="12" value="Entity With Foreign Keys" style="html=1;whiteSpace=wrap;swimlane;resizeParent=1;resizeParentMax=0;resizeLast=0;collapsible=1;marginBottom=0;swimlaneFillColor=#ffffff;startSize=20;fontSize=11;fontColor=#000000;spacing=0;strokeOpacity=100;fontFamily=Lucida Console;" vertex="1" zOrder="69" parent="1">
                    <mxGeometry x="20" y="110" width="300" height="100" as="geometry"/>
                </mxCell>
                <mxCell id="13" value="Key" style="strokeColor=none;part=1;resizeHeight=0;align=center;verticalAlign=top;spacingLeft=4;spacingRight=4;overflow=hidden;rotatable=0;points=[[0,0.5],[1,0.5]];portConstraint=eastwest;swimlaneFillColor=#ffffff;fontSize=11;fontColor=#000000;fillColor=none;strokeOpacity=100;spacing=0;fontFamily=Lucida Console;" vertex="1" parent="12">
                    <mxGeometry y="20" width="40" height="20" as="geometry"/>
                </mxCell>
                <mxCell id="14" value="Field" style="shape=partialRectangle;top=0;right=0;bottom=0;part=1;resizeHeight=0;align=left;verticalAlign=top;spacingLeft=4;spacingRight=4;overflow=hidden;rotatable=0;points=[[0,0.5],[1,0.5]];portConstraint=eastwest;swimlaneFillColor=#ffffff;fontSize=11;fontColor=#000000;fillColor=none;strokeOpacity=100;spacing=0;fontFamily=Lucida Console;" vertex="1" parent="12">
                    <mxGeometry x="40" y="20" width="200" height="20" as="geometry"/>
                </mxCell>
                <mxCell id="15" value="Type" style="shape=partialRectangle;top=0;right=0;bottom=0;part=1;resizeHeight=0;align=left;verticalAlign=top;spacingLeft=4;spacingRight=4;overflow=hidden;rotatable=0;points=[[0,0.5],[1,0.5]];portConstraint=eastwest;swimlaneFillColor=#ffffff;fontSize=11;fontColor=#000000;fillColor=none;strokeOpacity=100;spacing=0;fontFamily=Lucida Console;" vertex="1" parent="12">
                    <mxGeometry x="240" y="20" width="60" height="20" as="geometry"/>
                </mxCell>
                <mxCell id="16" value="Key" style="strokeColor=none;part=1;resizeHeight=0;align=center;verticalAlign=top;spacingLeft=4;spacingRight=4;overflow=hidden;rotatable=0;points=[[0,0.5],[1,0.5]];portConstraint=eastwest;swimlaneFillColor=#ffffff;fontSize=11;fontColor=#000000;fillColor=#000000;strokeOpacity=100;spacing=0;fontFamily=Lucida Console;fillOpacity=5;" vertex="1" parent="12">
                    <mxGeometry y="40" width="40" height="20" as="geometry"/>
                </mxCell>
                <mxCell id="17" value="Field" style="shape=partialRectangle;top=0;right=0;bottom=0;part=1;resizeHeight=0;align=left;verticalAlign=top;spacingLeft=4;spacingRight=4;overflow=hidden;rotatable=0;points=[[0,0.5],[1,0.5]];portConstraint=eastwest;swimlaneFillColor=#ffffff;fontSize=11;fontColor=#000000;fillColor=#000000;strokeOpacity=100;spacing=0;fontFamily=Lucida Console;fillOpacity=5;" vertex="1" parent="12">
                    <mxGeometry x="40" y="40" width="200" height="20" as="geometry"/>
                </mxCell>
                <mxCell id="18" value="Type" style="shape=partialRectangle;top=0;right=0;bottom=0;part=1;resizeHeight=0;align=left;verticalAlign=top;spacingLeft=4;spacingRight=4;overflow=hidden;rotatable=0;points=[[0,0.5],[1,0.5]];portConstraint=eastwest;swimlaneFillColor=#ffffff;fontSize=11;fontColor=#000000;fillColor=#000000;strokeOpacity=100;spacing=0;fontFamily=Lucida Console;fillOpacity=5;" vertex="1" parent="12">
                    <mxGeometry x="240" y="40" width="60" height="20" as="geometry"/>
                </mxCell>
                <mxCell id="19" value="Key" style="strokeColor=none;part=1;resizeHeight=0;align=center;verticalAlign=top;spacingLeft=4;spacingRight=4;overflow=hidden;rotatable=0;points=[[0,0.5],[1,0.5]];portConstraint=eastwest;swimlaneFillColor=#ffffff;fontSize=11;fontColor=#000000;fillColor=none;strokeOpacity=100;spacing=0;fontFamily=Lucida Console;" vertex="1" parent="12">
                    <mxGeometry y="60" width="40" height="20" as="geometry"/>
                </mxCell>
                <mxCell id="20" value="Field" style="shape=partialRectangle;top=0;right=0;bottom=0;part=1;resizeHeight=0;align=left;verticalAlign=top;spacingLeft=4;spacingRight=4;overflow=hidden;rotatable=0;points=[[0,0.5],[1,0.5]];portConstraint=eastwest;swimlaneFillColor=#ffffff;fontSize=11;fontColor=#000000;fillColor=none;strokeOpacity=100;spacing=0;fontFamily=Lucida Console;" vertex="1" parent="12">
                    <mxGeometry x="40" y="60" width="200" height="20" as="geometry"/>
                </mxCell>
                <mxCell id="21" value="Type" style="shape=partialRectangle;top=0;right=0;bottom=0;part=1;resizeHeight=0;align=left;verticalAlign=top;spacingLeft=4;spacingRight=4;overflow=hidden;rotatable=0;points=[[0,0.5],[1,0.5]];portConstraint=eastwest;swimlaneFillColor=#ffffff;fontSize=11;fontColor=#000000;fillColor=none;strokeOpacity=100;spacing=0;fontFamily=Lucida Console;" vertex="1" parent="12">
                    <mxGeometry x="240" y="60" width="60" height="20" as="geometry"/>
                </mxCell>
                <mxCell id="22" value="Key" style="strokeColor=none;part=1;resizeHeight=0;align=center;verticalAlign=top;spacingLeft=4;spacingRight=4;overflow=hidden;rotatable=0;points=[[0,0.5],[1,0.5]];portConstraint=eastwest;swimlaneFillColor=#ffffff;fontSize=11;fontColor=#000000;fillColor=#000000;strokeOpacity=100;spacing=0;fontFamily=Lucida Console;fillOpacity=5;" vertex="1" parent="12">
                    <mxGeometry y="80" width="40" height="20" as="geometry"/>
                </mxCell>
                <mxCell id="23" value="Field" style="shape=partialRectangle;top=0;right=0;bottom=0;part=1;resizeHeight=0;align=left;verticalAlign=top;spacingLeft=4;spacingRight=4;overflow=hidden;rotatable=0;points=[[0,0.5],[1,0.5]];portConstraint=eastwest;swimlaneFillColor=#ffffff;fontSize=11;fontColor=#000000;fillColor=#000000;strokeOpacity=100;spacing=0;fontFamily=Lucida Console;fillOpacity=5;" vertex="1" parent="12">
                    <mxGeometry x="40" y="80" width="200" height="20" as="geometry"/>
                </mxCell>
                <mxCell id="24" value="Type" style="shape=partialRectangle;top=0;right=0;bottom=0;part=1;resizeHeight=0;align=left;verticalAlign=top;spacingLeft=4;spacingRight=4;overflow=hidden;rotatable=0;points=[[0,0.5],[1,0.5]];portConstraint=eastwest;swimlaneFillColor=#ffffff;fontSize=11;fontColor=#000000;fillColor=#000000;strokeOpacity=100;spacing=0;fontFamily=Lucida Console;fillOpacity=5;" vertex="1" parent="12">
                    <mxGeometry x="240" y="80" width="60" height="20" as="geometry"/>
                </mxCell>
                <mxCell id="25" value="Entity For Many To Many" style="html=1;whiteSpace=wrap;swimlane;resizeParent=1;resizeParentMax=0;resizeLast=0;collapsible=1;marginBottom=0;swimlaneFillColor=#D2C2F2;startSize=20;fontSize=11;fontColor=#000000;spacing=0;strokeOpacity=100;fontFamily=Lucida Console;fillColor=#D2C2F2;swimlaneLine=1;opacity=50;" vertex="1" zOrder="69" parent="1">
                    <mxGeometry x="20" y="220" width="300" height="80" as="geometry"/>
                </mxCell>
                <mxCell id="26" value="Key" style="strokeColor=none;part=1;resizeHeight=0;align=center;verticalAlign=top;spacingLeft=4;spacingRight=4;overflow=hidden;rotatable=0;points=[[0,0.5],[1,0.5]];portConstraint=eastwest;swimlaneFillColor=#ffffff;fontSize=11;fontColor=#000000;fillColor=none;strokeOpacity=100;spacing=0;fontFamily=Lucida Console;" vertex="1" parent="25">
                    <mxGeometry y="20" width="40" height="20" as="geometry"/>
                </mxCell>
                <mxCell id="27" value="Field" style="shape=partialRectangle;top=0;right=0;bottom=0;part=1;resizeHeight=0;align=left;verticalAlign=top;spacingLeft=4;spacingRight=4;overflow=hidden;rotatable=0;points=[[0,0.5],[1,0.5]];portConstraint=eastwest;swimlaneFillColor=#ffffff;fontSize=11;fontColor=#000000;fillColor=none;strokeOpacity=100;spacing=0;fontFamily=Lucida Console;" vertex="1" parent="25">
                    <mxGeometry x="40" y="20" width="200" height="20" as="geometry"/>
                </mxCell>
                <mxCell id="28" value="Type" style="shape=partialRectangle;top=0;right=0;bottom=0;part=1;resizeHeight=0;align=left;verticalAlign=top;spacingLeft=4;spacingRight=4;overflow=hidden;rotatable=0;points=[[0,0.5],[1,0.5]];portConstraint=eastwest;swimlaneFillColor=#ffffff;fontSize=11;fontColor=#000000;fillColor=none;strokeOpacity=100;spacing=0;fontFamily=Lucida Console;" vertex="1" parent="25">
                    <mxGeometry x="240" y="20" width="60" height="20" as="geometry"/>
                </mxCell>
                <mxCell id="29" value="Key" style="strokeColor=none;part=1;resizeHeight=0;align=center;verticalAlign=top;spacingLeft=4;spacingRight=4;overflow=hidden;rotatable=0;points=[[0,0.5],[1,0.5]];portConstraint=eastwest;swimlaneFillColor=#ffffff;fontSize=11;fontColor=#000000;fillColor=#000000;strokeOpacity=100;spacing=0;fontFamily=Lucida Console;fillOpacity=5;" vertex="1" parent="25">
                    <mxGeometry y="40" width="40" height="20" as="geometry"/>
                </mxCell>
                <mxCell id="30" value="Field" style="shape=partialRectangle;top=0;right=0;bottom=0;part=1;resizeHeight=0;align=left;verticalAlign=top;spacingLeft=4;spacingRight=4;overflow=hidden;rotatable=0;points=[[0,0.5],[1,0.5]];portConstraint=eastwest;swimlaneFillColor=#ffffff;fontSize=11;fontColor=#000000;fillColor=#000000;strokeOpacity=100;spacing=0;fontFamily=Lucida Console;fillOpacity=5;" vertex="1" parent="25">
                    <mxGeometry x="40" y="40" width="200" height="20" as="geometry"/>
                </mxCell>
                <mxCell id="31" value="Type" style="shape=partialRectangle;top=0;right=0;bottom=0;part=1;resizeHeight=0;align=left;verticalAlign=top;spacingLeft=4;spacingRight=4;overflow=hidden;rotatable=0;points=[[0,0.5],[1,0.5]];portConstraint=eastwest;swimlaneFillColor=#ffffff;fontSize=11;fontColor=#000000;fillColor=#000000;strokeOpacity=100;spacing=0;fontFamily=Lucida Console;fillOpacity=5;" vertex="1" parent="25">
                    <mxGeometry x="240" y="40" width="60" height="20" as="geometry"/>
                </mxCell>
                <mxCell id="32" value="Key" style="strokeColor=none;part=1;resizeHeight=0;align=center;verticalAlign=top;spacingLeft=4;spacingRight=4;overflow=hidden;rotatable=0;points=[[0,0.5],[1,0.5]];portConstraint=eastwest;swimlaneFillColor=#ffffff;fontSize=11;fontColor=#000000;fillColor=none;strokeOpacity=100;spacing=0;fontFamily=Lucida Console;" vertex="1" parent="25">
                    <mxGeometry y="60" width="40" height="20" as="geometry"/>
                </mxCell>
                <mxCell id="33" value="Field" style="shape=partialRectangle;top=0;right=0;bottom=0;part=1;resizeHeight=0;align=left;verticalAlign=top;spacingLeft=4;spacingRight=4;overflow=hidden;rotatable=0;points=[[0,0.5],[1,0.5]];portConstraint=eastwest;swimlaneFillColor=#ffffff;fontSize=11;fontColor=#000000;fillColor=none;strokeOpacity=100;spacing=0;fontFamily=Lucida Console;" vertex="1" parent="25">
                    <mxGeometry x="40" y="60" width="200" height="20" as="geometry"/>
                </mxCell>
                <mxCell id="34" value="Type" style="shape=partialRectangle;top=0;right=0;bottom=0;part=1;resizeHeight=0;align=left;verticalAlign=top;spacingLeft=4;spacingRight=4;overflow=hidden;rotatable=0;points=[[0,0.5],[1,0.5]];portConstraint=eastwest;swimlaneFillColor=#ffffff;fontSize=11;fontColor=#000000;fillColor=none;strokeOpacity=100;spacing=0;fontFamily=Lucida Console;" vertex="1" parent="25">
                    <mxGeometry x="240" y="60" width="60" height="20" as="geometry"/>
                </mxCell>
            </root>
        </mxGraphModel>
    </diagram>
</mxfile>